<svg id="edfnskLyNQA1" xmlns="http://www.w3.org/2000/svg" xmlns:xlink="http://www.w3.org/1999/xlink"
    viewBox="0 0 250 150" shape-rendering="geometricPrecision" text-rendering="geometricPrecision"
    project-id="a42fe0cb43ab49de96e9789908de78b3" export-id="b54ee5ddbfe04a518466d5ca2b9560a4"
    cached="false">
    
    <path
        d="M74.11,51.64h-3.11c-.39,2.48-1.14,4.21-2.23,5.21s-3.69,1.48-7.77,1.48h-1.18v-58.33h-2.38L1.94,70.54v3.12h40.62v26.34h17.26v-26.31q2.18,0,4.32.12Q68,74,70.83,74c1.299292-.010092,2.596158.113898,3.87.37q-.3-3.86-.44-8.85t-.15-13.88ZM15.55,58.33l27-34.62v34.62h-27Z"
        transform="translate(0 2)" fill="#fff" />
    <path
        d="M247.62,65.55q-.15-5-.15-13.91h-3.13c-.39,2.48-1.14,4.21-2.23,5.21s-3.67,1.48-7.74,1.48h-1.19v-58.33h-2.38L175.3,70.54v3.12h40.62v26.34h17.26v-26.31q2.17,0,4.32.12q3.87.15,6.7.22c1.295965-.009689,2.589474.114301,3.86.37q-.28-3.86-.44-8.85Zm-58.7-7.22l27-34.62v34.62h-27Z"
        transform="translate(0 2)" fill="#fff" />
    <g transform="translate(0 2)" clip-path="url(#edfnskLyNQA6)">
        <path
            d="M149.11,4.84c-6.488979-3.333512-13.706543-4.996989-21-4.84-7.728505-.159082-15.359972,1.742745-22.11,5.51-6.209746,3.532424-11.31094,8.727122-14.73,15-3.535979,6.487114-5.350369,13.772217-5.27,21.16-.168839,7.2749,1.664569,14.456325,5.3,20.76c3.446348,5.831752,8.441104,10.594597,14.43,13.76c6.401483,3.344383,13.538581,5.032396,20.76,4.91q12.64,0,22.1-5.5c6.186694-3.562302,11.280649-8.749628,14.73-15c3.580994-6.538637,5.400509-13.895956,5.28-21.35.171311-7.26367-1.629178-14.437978-5.21-20.76-3.383891-5.80058-8.33274-10.531098-14.28-13.65Z"
            fill="#fff" />
        <clipPath id="edfnskLyNQA6">
            <rect id="edfnskLyNQA7" width="96.065498" height="20.935775" rx="0" ry="0"
                transform="matrix(1 0 0 3.875911 79.234502-.039055)" fill="#d2dbed" stroke-width="0" />
        </clipPath>
    </g>
    <ellipse id="edfnskLyNQA8" rx="17.451287" ry="17.451287"
        transform="matrix(.872142 0 0 0.872142 127.300247 40.548033)" stroke-width="0" />
    <rect style="mix-blend-mode:multiply" width="250" height="75" rx="0" ry="0"
        transform="translate(0 75)" opacity="0.8" fill="url(#edfnskLyNQA9-fill)" stroke-width="0" />
</svg>